<?xml version="1.0" standalone="no"?>
<!DOCTYPE svg PUBLIC "-//W3C//DTD SVG 20010904//EN"
 "http://www.w3.org/TR/2001/REC-SVG-20010904/DTD/svg10.dtd">
<svg version="1.0" xmlns="http://www.w3.org/2000/svg"
 width="383.000000pt" height="383.000000pt" viewBox="0 0 383.000000 383.000000"
 preserveAspectRatio="xMidYMid meet">
<metadata>
Created by potrace 1.11, written by Peter Selinger 2001-2013
</metadata>
<g transform="translate(0.000000,383.000000) scale(0.100000,-0.100000)"
fill="#000000" stroke="none">
<path d="M2030 2920 c-11 -11 -20 -29 -20 -40 0 -29 35 -60 68 -60 31 0 72 36
72 63 0 27 -37 57 -70 57 -17 0 -39 -9 -50 -20z"/>
<path d="M536 2885 c-47 -16 -103 -69 -122 -112 -30 -71 -11 -187 39 -241 55
-59 180 -82 262 -48 l35 15 0 91 0 91 -52 -3 -53 -3 -3 -47 c-3 -45 -5 -48
-31 -48 -46 0 -76 41 -76 107 0 48 3 58 29 80 27 23 35 25 86 19 l57 -7 16 42
c9 23 14 45 12 49 -7 11 -89 30 -127 30 -18 -1 -50 -7 -72 -15z"/>
<path d="M3070 2686 l0 -206 65 0 65 0 0 75 c0 94 20 103 44 21 23 -78 59
-106 137 -106 l59 0 0 50 c0 46 -2 50 -23 50 -33 0 -56 20 -63 55 -5 26 -2 33
20 44 26 15 56 66 56 98 0 30 -37 81 -72 100 -25 13 -63 18 -160 21 l-128 4 0
-206z m211 104 c23 -13 25 -55 3 -64 -9 -3 -31 -6 -50 -6 -33 0 -34 1 -34 40
0 38 2 40 31 40 17 0 39 -5 50 -10z"/>
<path d="M867 2759 c-21 -11 -47 -34 -57 -52 -27 -43 -26 -119 0 -163 23 -36
91 -74 134 -74 25 0 53 -11 131 -53 17 -9 44 -23 62 -32 18 -8 37 -24 43 -35
6 -11 15 -20 21 -20 6 0 43 -30 82 -66 40 -36 82 -70 95 -75 12 -5 22 -15 22
-24 0 -8 5 -15 11 -15 6 0 29 -16 52 -35 22 -19 46 -35 53 -35 6 0 14 -6 17
-14 5 -13 84 -55 129 -70 15 -4 88 -141 88 -164 0 -5 7 -15 15 -22 8 -7 15
-20 15 -29 0 -9 13 -32 30 -51 l29 -35 1 -312 c0 -172 4 -313 8 -313 4 0 8
-110 7 -245 0 -135 -3 -245 -7 -245 -5 0 -8 -6 -8 -13 0 -7 -20 -35 -45 -62
-25 -27 -48 -60 -52 -73 -9 -38 3 -112 24 -141 36 -48 36 -73 -1 -113 -18 -20
-36 -42 -39 -50 -3 -10 25 -32 90 -71 82 -50 97 -56 116 -45 60 32 494 292
506 303 11 11 11 16 0 30 -27 34 -83 85 -93 85 -6 0 -40 15 -76 33 -58 29 -76
33 -175 37 l-110 5 -9 55 c-5 36 -5 60 3 72 7 11 7 19 0 23 -6 4 -6 11 -1 18
13 17 15 144 3 151 -7 4 -8 36 -4 86 4 53 2 84 -5 93 -8 10 -14 127 -19 369
-6 349 -6 355 14 374 12 10 26 38 32 62 7 23 16 42 21 42 5 0 13 18 16 40 8
49 25 64 60 56 15 -4 119 -4 231 0 217 7 232 11 205 55 -7 10 -12 27 -12 36 0
20 -20 81 -33 101 -5 6 -24 12 -43 12 -19 0 -34 4 -34 10 0 5 -11 17 -25 26
-21 14 -31 15 -51 5 -21 -9 -30 -8 -51 9 -27 21 -59 25 -82 11 -8 -5 -26 -5
-43 1 -22 8 -34 6 -53 -6 -14 -9 -25 -23 -25 -31 0 -12 -15 -15 -70 -15 -52 0
-72 -4 -76 -14 -6 -16 25 -76 38 -76 4 0 8 -7 8 -15 0 -9 11 -20 25 -25 30
-11 33 -36 6 -45 -13 -4 -23 -22 -32 -58 -6 -29 -18 -61 -26 -72 -13 -18 -13
-13 -7 43 5 52 4 62 -8 62 -9 0 -21 7 -28 16 -11 13 -10 16 8 21 29 7 28 33
-1 33 -13 0 -37 -15 -56 -34 -33 -34 -34 -37 -29 -100 3 -36 3 -66 -1 -66 -4
0 -13 21 -20 48 -7 26 -20 58 -28 71 -12 19 -13 25 -2 32 19 11 -19 52 -43 46
-10 -3 -18 -1 -18 4 0 18 31 22 71 10 61 -18 79 -8 79 44 0 24 5 56 10 70 8
22 6 32 -11 56 -20 28 -52 38 -63 20 -3 -4 -24 -11 -47 -14 -39 -5 -46 -2
-101 44 -32 27 -65 49 -72 49 -8 0 -19 6 -25 14 -20 23 -89 56 -106 50 -8 -4
-15 -2 -15 4 0 5 -21 15 -47 22 -27 6 -55 15 -63 18 -8 3 -19 7 -25 7 -5 1
-27 9 -47 19 -21 9 -44 16 -53 16 -8 0 -15 5 -15 10 0 6 16 10 35 10 l35 0 0
78 c0 94 10 111 69 119 l43 6 -6 36 c-3 20 -6 42 -6 49 0 22 -41 13 -71 -17
l-29 -29 0 24 c0 23 -3 24 -65 24 l-65 0 0 -141 c0 -125 -2 -140 -16 -135 -9
3 -20 6 -24 6 -5 0 -12 16 -16 35 l-6 35 -49 -6 c-56 -8 -99 1 -99 20 0 9 25
16 83 22 l82 9 3 32 c10 103 -117 167 -221 112z m117 -68 c16 -18 16 -19 -11
-25 -15 -4 -36 -9 -45 -12 -23 -7 -24 19 -2 40 20 21 37 20 58 -3z"/>
<path d="M1555 2749 l-35 -31 0 26 c0 25 -2 26 -60 26 l-60 0 0 -145 0 -145
65 0 65 0 0 85 c0 72 3 88 20 105 26 26 35 25 54 -2 11 -16 16 -46 16 -105 l0
-83 60 0 60 0 0 76 c0 72 10 111 34 126 16 11 23 10 40 -8 12 -12 16 -37 16
-105 l0 -89 65 0 65 0 0 88 c0 48 -5 104 -10 124 -14 50 -61 88 -108 88 -39 0
-102 -32 -102 -51 0 -6 -16 3 -35 20 -27 23 -45 31 -75 31 -30 0 -48 -8 -75
-31z"/>
<path d="M2014 2765 c-4 -8 -5 -62 -2 -120 3 -86 7 -109 24 -132 26 -35 73
-49 122 -37 35 8 37 12 40 52 3 39 1 42 -21 42 -33 0 -37 15 -37 121 l0 89
-60 0 c-45 0 -62 -4 -66 -15z"/>
<path d="M2391 2754 c-30 -25 -31 -25 -31 -5 0 19 -6 21 -65 21 l-65 0 0 -145
0 -145 65 0 65 0 0 79 c0 64 4 83 21 105 11 14 28 26 38 26 33 0 41 -22 41
-117 l0 -93 65 0 65 0 0 88 c0 48 -5 104 -10 124 -24 83 -124 117 -189 62z"/>
<path d="M2712 2763 c-73 -36 -101 -127 -63 -205 40 -84 147 -113 207 -57 l24
22 0 -21 c0 -20 5 -22 60 -22 l60 0 0 150 0 150 -60 0 c-57 0 -60 -1 -60 -25
0 -14 -4 -25 -10 -25 -5 0 -10 4 -10 10 0 15 -55 40 -87 40 -15 0 -43 -8 -61
-17z m148 -98 c7 -8 13 -26 13 -40 0 -34 -20 -55 -54 -55 -34 0 -59 23 -59 55
0 13 7 31 16 39 20 20 68 21 84 1z"/>
</g>
</svg>
