<?xml version="1.0" standalone="no"?>
<!DOCTYPE svg PUBLIC "-//W3C//DTD SVG 20010904//EN"
 "http://www.w3.org/TR/2001/REC-SVG-20010904/DTD/svg10.dtd">
<svg version="1.0" xmlns="http://www.w3.org/2000/svg"
 width="383.000000pt" height="383.000000pt" viewBox="0 0 383.000000 383.000000"
 preserveAspectRatio="xMidYMid meet">
<metadata>
Created by potrace 1.11, written by Peter Selinger 2001-2013
</metadata>
<g transform="translate(0.000000,383.000000) scale(0.100000,-0.100000)"
fill="#000000" stroke="none">
<path d="M1859 3795 c-30 -18 -166 -98 -304 -178 -137 -80 -268 -156 -290
-170 -40 -24 -609 -356 -695 -405 -25 -14 -103 -60 -175 -102 l-130 -77 -3
-945 c-2 -749 1 -948 10 -956 7 -5 337 -199 733 -430 396 -230 762 -445 813
-476 l93 -56 37 20 c20 11 54 30 74 42 57 35 250 149 278 165 14 7 304 176
645 376 l620 362 0 949 0 950 -150 88 c-82 49 -157 91 -165 95 -8 4 -54 31
-102 60 -48 29 -89 53 -92 53 -2 0 -35 19 -72 42 -142 86 -407 238 -415 238
-5 0 -9 5 -9 10 0 6 -4 10 -9 10 -5 0 -55 27 -111 60 -56 33 -104 60 -107 60
-3 0 -17 8 -31 19 -40 28 -204 121 -213 121 -5 0 -9 5 -9 10 0 6 -4 10 -10 10
-5 0 -43 20 -83 44 l-74 43 -54 -32z"/>
</g>
</svg>
